# xmcd
#
# Track frame offsets:
#	182
#	13472
#	26357
#	36167
#	50185
#	68587
#	77620
#	88865
#	100402
#	115425
#	126022
#	135657
#	145957
#	160022
#	172780
#	194172
#	207575
#	228405
#	238552
#	250647
#	261135
#	273095
#	287232
#	300440
#	313237
#
# Disc length: 4316 seconds
#
# Revision: 2
# Processed by: cddbd v1.5.1PL0 Copyright (c) Steve Scherf et al.
# Submitted via: audiograbber 1.83.01
#
DISCID=6910da19
DTITLE=Various Artist - Willie Dixon's Blues Dixonary (Vol 2)
DYEAR=1900
DGENRE=Blues
TTITLE0=Muddy Waters - Don't Go No Further
TTITLE1=Muddy Waters - I Love The Life I Live, I Live The Life I Love
TTITLE2=Willie Dixon - 29 Ways
TTITLE3=Muddy Waters - Close To You
TTITLE4=Jimmy Witherspoon - Everything But You
TTITLE5=Little Walter - Crazy Mixed Up World
TTITLE6=Little Walter - My Baby's Sweeter
TTITLE7=Howlin' Wolf - Howlin'  For My Darling
TTITLE8=Buddy Guy - Broken-Hearted Blues
TTITLE9=Buddy Guy - I Got My Eyes On You
TTITLE10=Buddy Guy - Slop Around
TTITLE11=Elmore James - Talk To Me Baby (I Can't Hold Out)
TTITLE12=Etta James - I Just Want To Make Love To You
TTITLE13=Howlin' Wolf - Back Door Man
TTITLE14=Muddy Waters - I Got My Brand On You
TTITLE15=Muddy Waters - I'm Your Hoochie Coochie Man
TTITLE16=Muddy Waters - Tiger In Your Tank
TTITLE17=Otis Rush - I Can't Stop Baby
TTITLE18=Otis Rush - You Know My Love
TTITLE19=Little Walter - I Don't Play
TTITLE20=Little Walter - As Long As I Have You
TTITLE21=Buddy Guy - I Got A Strange Feeling
TTITLE22=Buddy Guy - Let Me Love You Baby
TTITLE23=Etta James - Spoonful
TTITLE24=Etta James - Nobody But You
EXTD=
EXTT0=
EXTT1=
EXTT2=
EXTT3=
EXTT4=
EXTT5=
EXTT6=
EXTT7=
EXTT8=
EXTT9=
EXTT10=
EXTT11=
EXTT12=
EXTT13=
EXTT14=
EXTT15=
EXTT16=
EXTT17=
EXTT18=
EXTT19=
EXTT20=
EXTT21=
EXTT22=
EXTT23=
EXTT24=
PLAYORDER=
